<?xml version="1.0" encoding="utf-8"?>
<!-- Generator: Adobe Illustrator 25.0.1, SVG Export Plug-In . SVG Version: 6.00 Build 0)  -->
<svg version="1.1" id="Livello_1" xmlns="http://www.w3.org/2000/svg" xmlns:xlink="http://www.w3.org/1999/xlink" x="0px" y="0px"
	 viewBox="0 0 28.3 30.7" style="enable-background:new 0 0 28.3 30.7;" xml:space="preserve">
<style type="text/css">
	.st0{fill:#E7E3F1;}
	.st1{filter:url(#Adobe_OpacityMaskFilter);}
	.st2{fill:#FFFFFF;}
	.st3{mask:url(#mask-2_2_);fill:#E7E3F1;}
	.st4{filter:url(#Adobe_OpacityMaskFilter_1_);}
	.st5{mask:url(#mask-4_2_);fill:#E7E3F1;}
</style>
<g id="Symbols">
	<g id="Cta_share" transform="translate(0 -11)">
		<g id="ornamento_1" transform="matrix(0 1 1 0 0 11)">
			<g id="Group-10">
				<path id="Fill-1" class="st0" d="M12.3,24.5l3,3.8l3-3.8l-3-4.5C15.3,20,12.3,24.5,12.3,24.5z M13.2,24.5l2.1-3.1l2.1,3.1
					l-2.1,2.6C15.3,27.1,13.2,24.5,13.2,24.5z"/>
				<path id="Fill-2" class="st0" d="M15.4,0l-3,4.5l3,3.8l3-3.8L15.4,0z M13.2,4.5l2.1-3.1l2.1,3.1l-2.1,2.6
					C15.3,7.1,13.2,4.5,13.2,4.5z"/>
				<defs>
					<filter id="Adobe_OpacityMaskFilter" filterUnits="userSpaceOnUse">
						<feColorMatrix  type="matrix" values="1 0 0 0 0  0 1 0 0 0  0 0 1 0 0  0 0 0 1 0"/>
					</filter>
				</defs>
				<mask maskUnits="userSpaceOnUse" id="mask-2_2_">
					<g class="st1">
						<path id="path-1_2_" class="st2" d="M0,8.3h14.4v15.5H0V8.3z"/>
					</g>
				</mask>
				<path id="Fill-3" class="st3" d="M7.8,13.7c-1.3,0-2.4-1-2.4-2.3c0-1.1,0.8-2.1,1.9-2.3c0.2,0,0.4,0,0.5-0.1
					c1.3,0,2.3,1.1,2.3,2.3C10.1,12.6,9.1,13.7,7.8,13.7 M12.9,10.5c-1.3-1.4-3.2-2.2-5.1-2.2c-0.2,0-0.4,0-0.6,0.1H7
					c-1.3,0.4-2.3,1.5-2.3,3c0,1.7,1.4,3.1,3.1,3.1s3.1-1.4,3.1-3.1c0-0.7-0.3-1.4-0.7-1.9c0.8,0.3,1.6,0.8,2.1,1.5
					c1.9,2.2,1.3,5.3,0.9,6.6c-1.5,5.6-6.8,5.6-12.9,5.6H0v0.7h0.8c6,0,11.6-0.1,13.2-6.1C14.8,14.9,14.4,12.2,12.9,10.5"/>
				<defs>
					<filter id="Adobe_OpacityMaskFilter_1_" filterUnits="userSpaceOnUse">
						<feColorMatrix  type="matrix" values="1 0 0 0 0  0 1 0 0 0  0 0 1 0 0  0 0 0 1 0"/>
					</filter>
				</defs>
				<mask maskUnits="userSpaceOnUse" id="mask-4_2_">
					<g class="st4">
						<path id="path-3_2_" class="st2" d="M16.3,8.3h14.4v15.5H16.3V8.3z"/>
					</g>
				</mask>
				<path id="Fill-6" class="st5" d="M22.9,9c0.2,0,0.4,0,0.5,0.1c1.1,0.2,1.9,1.2,1.9,2.3c0,1.3-1.1,2.3-2.4,2.3s-2.4-1-2.4-2.3
					C20.6,10.1,21.6,9,22.9,9z M30.3,23.1c-6.1,0-11.3,0-12.9-5.6c-0.3-1.2-1-4.4,0.9-6.6c0.6-0.6,1.3-1.1,2.1-1.5
					c-0.4,0.5-0.7,1.2-0.7,1.9c0,1.7,1.4,3.1,3.1,3.1s3.1-1.4,3.1-3.1c0-1.4-1-2.6-2.3-3h-0.2c-0.2,0-0.4-0.1-0.6-0.1
					c-1.9,0-3.9,0.8-5.1,2.2c-1.5,1.7-1.9,4.4-1.1,7.3c1.7,6,7.2,6.1,13.2,6.1h0.8v-0.7C30.6,23.1,30.3,23.1,30.3,23.1z"/>
			</g>
		</g>
	</g>
</g>
</svg>
