<?xml version="1.0" encoding="utf-8"?>
<!-- Generator: Adobe Illustrator 25.0.1, SVG Export Plug-In . SVG Version: 6.00 Build 0)  -->
<svg version="1.1" id="Livello_1" xmlns="http://www.w3.org/2000/svg" xmlns:xlink="http://www.w3.org/1999/xlink" x="0px" y="0px"
	 viewBox="0 0 28.3 30.7" style="enable-background:new 0 0 28.3 30.7;" xml:space="preserve">
<style type="text/css">
	.st0{fill:#424242;}
	.st1{filter:url(#Adobe_OpacityMaskFilter);}
	.st2{fill:#FFFFFF;}
	.st3{mask:url(#mask-2_2_);fill:#424242;}
	.st4{filter:url(#Adobe_OpacityMaskFilter_1_);}
	.st5{mask:url(#mask-4_2_);fill:#424242;}
</style>
<g id="Symbols">
	<g id="Cta_share" transform="translate(0 -11)">
		<g id="ornamento_1" transform="matrix(0 1 1 0 0 11)">
			<g id="Group-10">
				<path id="Fill-1" class="st0" d="M18.4,3.8l-3-3.8l-3,3.8l3,4.5C15.4,8.3,18.4,3.8,18.4,3.8z M17.5,3.8l-2.1,3.1l-2.1-3.1
					l2.1-2.6C15.4,1.2,17.5,3.8,17.5,3.8z"/>
				<path id="Fill-2" class="st0" d="M15.4,28.3l3-4.5l-3-3.8l-3,3.8L15.4,28.3z M17.5,23.8l-2.1,3.1l-2.1-3.1l2.1-2.6L17.5,23.8z"
					/>
				<defs>
					<filter id="Adobe_OpacityMaskFilter" filterUnits="userSpaceOnUse">
						<feColorMatrix  type="matrix" values="1 0 0 0 0  0 1 0 0 0  0 0 1 0 0  0 0 0 1 0"/>
					</filter>
				</defs>
				<mask maskUnits="userSpaceOnUse" id="mask-2_2_">
					<g class="st1">
						<path id="path-1_2_" class="st2" d="M30.7,20H16.3V4.4h14.4L30.7,20z"/>
					</g>
				</mask>
				<path id="Fill-3" class="st3" d="M23,14.6c1.3,0,2.4,1,2.4,2.3c0,1.1-0.8,2.1-1.9,2.3c-0.2,0-0.4,0-0.5,0.1
					c-1.3,0-2.3-1.1-2.3-2.3C20.6,15.6,21.6,14.6,23,14.6 M17.8,17.8C19,19.2,21,20,22.9,20c0.2,0,0.4,0,0.6-0.1h0.2
					c1.3-0.4,2.3-1.5,2.3-3c0-1.7-1.4-3.1-3.1-3.1s-3.1,1.4-3.1,3.1c0,0.7,0.3,1.4,0.7,1.9c-0.8-0.3-1.6-0.8-2.1-1.5
					c-1.9-2.2-1.3-5.3-0.9-6.6c1.5-5.6,6.8-5.6,12.9-5.6h0.4V4.4H30c-6,0-11.6,0.1-13.2,6.1C15.9,13.4,16.3,16.1,17.8,17.8"/>
				<defs>
					<filter id="Adobe_OpacityMaskFilter_1_" filterUnits="userSpaceOnUse">
						<feColorMatrix  type="matrix" values="1 0 0 0 0  0 1 0 0 0  0 0 1 0 0  0 0 0 1 0"/>
					</filter>
				</defs>
				<mask maskUnits="userSpaceOnUse" id="mask-4_2_">
					<g class="st4">
						<path id="path-3_2_" class="st2" d="M14.4,20H0V4.4h14.4V20z"/>
					</g>
				</mask>
				<path id="Fill-6" class="st5" d="M7.8,19.2c-0.2,0-0.4,0-0.5-0.1C6.2,19,5.4,18,5.4,16.9c0-1.3,1.1-2.3,2.4-2.3s2.4,1,2.4,2.3
					C10.1,18.2,9.1,19.2,7.8,19.2z M0.4,5.2c6.1,0,11.3,0,12.9,5.6c0.3,1.2,1,4.4-0.9,6.6c-0.6,0.6-1.3,1.1-2.1,1.5
					c0.4-0.5,0.7-1.2,0.7-1.9c0-1.7-1.4-3.1-3.1-3.1S4.8,15.3,4.8,17c0,1.4,1,2.6,2.3,3h0.7c1.9,0,3.9-0.8,5.1-2.2
					c1.5-1.7,1.9-4.4,1.1-7.3c-1.7-6-7.2-6.1-13.2-6.1H0v0.7h0.4V5.2z"/>
			</g>
		</g>
	</g>
</g>
</svg>
